<svg xmlns="http://www.w3.org/2000/svg" version="1.1" xmlns:xlink="http://www.w3.org/1999/xlink" xmlns:svgjs="http://svgjs.dev/svgjs" width="1500" height="939" viewBox="0 0 1500 939"><g transform="matrix(1,0,0,1,-0.9090909090909918,-1.5145161290323017)"><svg viewBox="0 0 396 248" data-background-color="#f9f6ed" preserveAspectRatio="xMidYMid meet" height="939" width="1500" xmlns="http://www.w3.org/2000/svg" xmlns:xlink="http://www.w3.org/1999/xlink"><g id="tight-bounds" transform="matrix(1,0,0,1,0.2400000000000091,0.4000000000000057)"><svg viewBox="0 0 395.52 247.2" height="247.2" width="395.52"><g><svg></svg></g><g><svg viewBox="0 0 395.52 247.2" height="247.2" width="395.52"><g transform="matrix(1,0,0,1,75.54432,89.84818532500918)"><svg viewBox="0 0 244.43135999999998 67.50362934998162" height="67.50362934998162" width="244.43135999999998"><g><svg viewBox="0 0 244.43135999999998 67.50362934998162" height="67.50362934998162" width="244.43135999999998"><g><svg viewBox="0 0 244.43135999999998 67.50362934998162" height="67.50362934998162" width="244.43135999999998"><g><svg viewBox="0 0 244.43135999999998 67.50362934998162" height="67.50362934998162" width="244.43135999999998"><g id="textblocktransform"><svg viewBox="0 0 244.43135999999998 67.50362934998162" height="67.50362934998162" width="244.43135999999998" id="textblock"><g><svg viewBox="0 0 244.43135999999998 67.50362934998162" height="67.50362934998162" width="244.43135999999998"><g transform="matrix(1,0,0,1,0,0)"><svg width="244.43135999999998" viewBox="-1.2 -36.55 136.14 37.599999999999994" height="67.50362934998162" data-palette-color="#21272d"><path d="M5.4-35.6L5.4-35.6 12.6-35.2Q17.4-35.2 19.5-36.35L19.5-36.35Q19.8-36.55 20.03-36.55 20.25-36.55 20.25-35.85 20.25-35.15 19.4-33.55L19.4-33.55Q18.15-31.1 15.8-31.1L15.8-31.1 13.05-31.15Q12.65-31.15 12.55-30.7L12.55-30.7Q12.2-23.35 12.2-14.83 12.2-6.3 12.9-2L12.9-2 12.9-1.75Q12.9-0.5 10.53 0.25 8.15 1 6.05 1L6.05 1Q5.05 1 5.05 0.45L5.05 0.45Q5.05 0.3 5.2-0.25L5.2-0.25Q5.75-1.35 6.18-10.9 6.6-20.45 6.6-25.3L6.6-25.3 6.5-30.75Q6.5-31.05 6.2-31.1L6.2-31.1Q5.15-31.3 3.8-31.3L3.8-31.3Q1.1-31.3-0.2-30.2L-0.2-30.2Q-0.55-29.95-0.88-29.95-1.2-29.95-1.2-30.35L-1.2-30.35Q-1.2-30.95-0.58-32 0.05-33.05 0.75-33.8L0.75-33.8Q2.45-35.6 5.4-35.6ZM26.4-26.85L26.4-26.85 26.35-22Q26.35-21.7 26.55-21.7 26.75-21.7 26.95-21.85L26.95-21.85Q28.2-22.7 30.9-22.7L30.9-22.7Q35.45-22.7 37.2-19.6L37.2-19.6Q37.85-18.45 37.85-16.55 37.85-14.65 37.62-11.3 37.4-7.95 37.4-6.55L37.4-6.55Q37.4-1.65 38.8-0.05L38.8-0.05Q39.05 0.2 39.05 0.45L39.05 0.45Q39.05 0.95 36.9 0.95L36.9 0.95Q31.1 0.95 31.1-4.45L31.1-4.45Q31.1-6.55 32.1-10.35 33.1-14.15 33.1-15.95 33.1-17.75 32.25-18.73 31.4-19.7 29.9-19.7 28.4-19.7 27.52-19.05 26.65-18.4 26.45-17.7L26.45-17.7 26.3-17.05Q26.25-16.1 26.25-11 26.25-5.9 26.5-4.38 26.75-2.85 26.75-2.65L26.75-2.65Q26.75-1.2 24.8-0.08 22.85 1.05 20.95 1.05L20.95 1.05Q20.25 1.05 20.25 0.25L20.25 0.25 20.35-0.7Q21.45-9.1 21.45-18.9L21.45-18.9Q21.45-22.7 21.15-26.6L21.15-26.6 21.1-27.7Q21-29.1 20.52-30.1 20.05-31.1 19.65-31.4L19.65-31.4 19.2-31.65Q18.85-31.85 18.85-32.1L18.85-32.1Q18.85-32.8 21.2-33.83 23.55-34.85 24.82-34.85 26.1-34.85 26.2-34.3L26.2-34.3Q26.4-31.75 26.4-26.85ZM45.3-12.7L45.3-12.7 45.34-11.45Q45.34-11.15 45.75-11.15L45.75-11.15Q47.34-11.3 48.55-11.98 49.75-12.65 50.34-13.5L50.34-13.5Q51.55-15.35 51.65-16.7L51.65-16.7 51.7-17.3Q51.7-20 49.55-20L49.55-20Q47.95-20 46.95-18.6L46.95-18.6Q45.3-16.4 45.3-12.7ZM56.2-6.05L56.2-6.05Q56.2-4.15 55.42-2.73 54.65-1.3 53.67-0.63 52.7 0.05 51.4 0.45L51.4 0.45Q49.75 0.95 48.25 0.95L48.25 0.95Q44.05 0.95 42.05-2.2 40.05-5.35 40.05-10.23 40.05-15.1 42.52-18.9 45-22.7 49.95-22.7L49.95-22.7Q54.45-22.7 56.05-19.55L56.05-19.55Q56.7-18.35 56.7-17.28 56.7-16.2 56.59-15.58 56.5-14.95 55.9-13.7 55.3-12.45 54.3-11.45 53.3-10.45 51.15-9.55 49-8.65 46.09-8.35L46.09-8.35Q45.7-8.35 45.7-8L45.7-8Q45.7-7.55 46.02-6.68 46.34-5.8 46.75-5.2L46.75-5.2Q47.84-3.8 50-3.8L50-3.8Q52.15-3.8 53.65-5.2L53.65-5.2Q54.45-5.95 54.95-7.05L54.95-7.05Q55.15-7.45 55.47-7.45 55.8-7.45 56-6.9 56.2-6.35 56.2-6.05ZM69.14-19.45L69.14-19.45 68.89-28.9Q68.89-31.15 68.39-32.45 67.89-33.75 67.89-33.85L67.89-33.85Q67.89-34.95 71.27-35.55 74.64-36.15 76.42-36.15 78.19-36.15 78.34-35.3L78.34-35.3Q81.49-21.25 83.64-15.8L83.64-15.8Q83.89-15.2 84.17-15.2 84.44-15.2 84.64-15.65L84.64-15.65Q87.99-25.1 90.54-34.35L90.54-34.35Q90.74-34.95 91.54-35.27 92.34-35.6 94.32-35.9 96.29-36.2 98.24-36.2 100.19-36.2 100.19-35.4L100.19-35.4Q100.19-35.35 100.04-34.63 99.89-33.9 99.74-32.85 99.59-31.8 99.39-30.3L99.39-30.3Q98.94-26.85 98.82-22.38 98.69-17.9 98.69-13.4L98.69-13.4 98.79-8.15Q98.79-4.55 99.27-3.03 99.74-1.5 99.74-1.28 99.74-1.05 99.39-0.75L99.39-0.75Q97.84 0.5 94.69 0.5L94.69 0.5Q92.69 0.5 92.44-0.85L92.44-0.85Q92.29-1.55 92.29-3.08 92.29-4.6 92.59-12.45 92.89-20.3 92.89-23.88 92.89-27.45 92.49-27.45L92.49-27.45Q92.44-27.45 92.44-27.43 92.44-27.4 92.29-27.35 92.14-27.3 91.52-25.8 90.89-24.3 89.04-18.4 87.19-12.5 85.69-7.38 84.19-2.25 84.04-1.85L84.04-1.85Q83.49-0.5 81.94-0.5L81.94-0.5Q81.19-0.5 80.74-1.05L80.74-1.05Q79.14-8.45 75.04-22.2L75.04-22.2 73.64-26.75Q73.54-27 73.44-27L73.44-27Q73.19-27 73.09-26.65L73.09-26.65Q72.89-23.4 72.89-13.88 72.89-4.35 73.59-1.85L73.59-1.85Q73.64-1.75 73.64-1.55L73.64-1.55Q73.64-0.5 71.99-0.03 70.34 0.45 69.02 0.45 67.69 0.45 67.69-0.15L67.69-0.15Q67.69-0.2 67.94-0.95L67.94-0.95Q68.69-3.5 68.92-8.35 69.14-13.2 69.14-19.45ZM103.89-19.45L103.89-19.45 103.64-28.9Q103.64-31.15 103.14-32.45 102.64-33.75 102.64-33.85L102.64-33.85Q102.64-34.95 106.01-35.55 109.39-36.15 111.16-36.15 112.94-36.15 113.09-35.3L113.09-35.3Q116.24-21.25 118.39-15.8L118.39-15.8Q118.64-15.2 118.91-15.2 119.19-15.2 119.39-15.65L119.39-15.65Q122.74-25.1 125.29-34.35L125.29-34.35Q125.49-34.95 126.29-35.27 127.09-35.6 129.06-35.9 131.04-36.2 132.99-36.2 134.94-36.2 134.94-35.4L134.94-35.4Q134.94-35.35 134.79-34.63 134.64-33.9 134.49-32.85 134.34-31.8 134.14-30.3L134.14-30.3Q133.69-26.85 133.56-22.38 133.44-17.9 133.44-13.4L133.44-13.4 133.54-8.15Q133.54-4.55 134.01-3.03 134.49-1.5 134.49-1.28 134.49-1.05 134.14-0.75L134.14-0.75Q132.59 0.5 129.44 0.5L129.44 0.5Q127.44 0.5 127.19-0.85L127.19-0.85Q127.04-1.55 127.04-3.08 127.04-4.6 127.34-12.45 127.64-20.3 127.64-23.88 127.64-27.45 127.24-27.45L127.24-27.45Q127.19-27.45 127.19-27.43 127.19-27.4 127.04-27.35 126.89-27.3 126.26-25.8 125.64-24.3 123.79-18.4 121.94-12.5 120.44-7.38 118.94-2.25 118.79-1.85L118.79-1.85Q118.24-0.5 116.69-0.5L116.69-0.5Q115.94-0.5 115.49-1.05L115.49-1.05Q113.89-8.45 109.79-22.2L109.79-22.2 108.39-26.75Q108.29-27 108.19-27L108.19-27Q107.94-27 107.84-26.65L107.84-26.65Q107.64-23.4 107.64-13.88 107.64-4.35 108.34-1.85L108.34-1.85Q108.39-1.75 108.39-1.55L108.39-1.55Q108.39-0.5 106.74-0.03 105.09 0.45 103.76 0.45 102.44 0.45 102.44-0.15L102.44-0.15Q102.44-0.2 102.69-0.95L102.69-0.95Q103.44-3.5 103.66-8.35 103.89-13.2 103.89-19.45Z" opacity="1" transform="matrix(1,0,0,1,0,0)" fill="#21272d" class="wordmark-text-0" data-fill-palette-color="primary" id="text-0"></path></svg></g></svg></g></svg></g></svg></g></svg></g></svg></g></svg></g><g><path d="M0 123.6c0-68.262 55.338-123.6 123.6-123.6 53.622 0 99.268 34.146 116.382 81.88h-3.24c-16.975-46.02-61.226-78.836-113.142-78.836-66.581 0-120.556 53.975-120.556 120.556 0 66.581 53.975 120.556 120.556 120.556 51.916 0 96.167-32.816 113.142-78.836l3.24 0c-17.114 47.734-62.76 81.88-116.382 81.88-68.262 0-123.6-55.338-123.6-123.6z" fill="#21272d" stroke="transparent" data-fill-palette-color="tertiary"></path></g></svg></g><defs></defs></svg><rect width="395.52" height="247.2" fill="none" stroke="none" visibility="hidden"></rect></g></svg></g></svg>